<?xml version="1.0" encoding="UTF-8" standalone="no"?><!DOCTYPE svg PUBLIC "-//W3C//DTD SVG 1.1//EN" "http://www.w3.org/Graphics/SVG/1.1/DTD/svg11.dtd"><svg width="100%" height="100%" viewBox="0 0 738 471" version="1.1" xmlns="http://www.w3.org/2000/svg" xmlns:xlink="http://www.w3.org/1999/xlink" xml:space="preserve" xmlns:serif="http://www.serif.com/" style="fill-rule:evenodd;clip-rule:evenodd;stroke-linejoin:round;stroke-miterlimit:2;"><g><path d="M36.163,257.063c-0.001,-1.2 -0.359,-2.246 -1.046,-3.146c-0.679,-0.892 -1.829,-1.646 -3.525,-2.163c-1.346,-0.412 -3.125,-0.771 -5.346,-1.062c-2.158,-0.288 -4.871,-0.434 -8.138,-0.434c-3.137,0 -5.812,0.146 -8.033,0.43c-2.287,0.295 -4.104,0.654 -5.45,1.066c-1.696,0.517 -2.846,1.271 -3.525,2.163c-0.688,0.9 -1.046,1.946 -1.046,3.145l0,205.792c0,1.225 0.404,2.296 1.196,3.217c0.742,0.867 1.95,1.596 3.688,2.1c1.404,0.408 3.208,0.762 5.412,1.054c2.162,0.288 4.746,0.433 7.758,0.433c3.267,0 5.98,-0.145 8.138,-0.433c2.221,-0.292 4,-0.65 5.346,-1.062c1.696,-0.517 2.846,-1.271 3.525,-2.163c0.687,-0.9 1.045,-1.946 1.045,-3.146l0,-205.791Z" style="fill:url(#_Linear1);"/><path d="M89.171,364.067c-0,16.45 2.637,31.208 7.891,44.279c5.284,13.137 13.055,24.321 23.292,33.55c10.25,9.237 22.938,16.325 38.079,21.258c15.054,4.9 33.479,7.363 55.279,7.363l56.396,-0c3.321,-0 6.467,-0.954 9.425,-2.896c2.988,-1.963 4.634,-5.363 4.634,-10.3l-0,-192.858c-0,-4.942 -1.646,-8.342 -4.634,-10.305c-2.958,-1.941 -6.104,-2.895 -9.425,-2.895l-52.737,-0c-21.521,-0 -40.059,2.316 -55.617,6.933c-15.662,4.646 -28.875,11.65 -39.642,21c-10.766,9.346 -18.962,21.121 -24.57,35.333c-5.571,14.121 -8.371,30.634 -8.371,49.538Zm39.179,-1.171c0,-14.463 1.783,-26.979 5.383,-37.554c3.538,-10.404 8.829,-19.063 15.904,-25.963c7.034,-6.854 15.796,-11.937 26.28,-15.258c10.666,-3.375 23.779,-5.042 39.333,-5.042l31.467,0l-0,163.788l-31.08,-0c-16.766,-0 -30.475,-1.975 -41.112,-5.996c-10.521,-3.975 -19.221,-9.5 -26.088,-16.596c-6.895,-7.117 -11.95,-15.563 -15.183,-25.325c-3.271,-9.892 -4.904,-20.579 -4.904,-32.054Z" style="fill:url(#_Linear2);"/><path d="M534.846,364.067c-0,-18.904 -2.796,-35.417 -8.367,-49.538c-5.612,-14.212 -13.808,-25.987 -24.571,-35.333c-10.77,-9.35 -23.979,-16.354 -39.645,-21c-15.555,-4.617 -34.092,-6.933 -55.613,-6.933l-52.742,-0c-3.316,-0 -6.462,0.954 -9.42,2.895c-2.992,1.963 -4.634,5.363 -4.634,10.304l0,192.859c0,4.937 1.642,8.337 4.634,10.3c2.958,1.941 6.104,2.896 9.42,2.896l56.4,-0c21.8,-0 40.225,-2.463 55.275,-7.363c15.142,-4.933 27.834,-12.021 38.08,-21.258c10.241,-9.229 18.008,-20.413 23.291,-33.55c5.259,-13.071 7.892,-27.829 7.892,-44.279Zm-39.179,-1.171c-0,11.475 -1.63,22.162 -4.905,32.054c-3.229,9.762 -8.283,18.208 -15.179,25.325c-6.871,7.096 -15.571,12.621 -26.091,16.596c-10.634,4.021 -24.342,5.996 -41.109,5.996l-31.083,-0l-0,-163.788l31.467,0c15.558,0 28.67,1.667 39.333,5.042c10.487,3.321 19.25,8.404 26.279,15.258c7.079,6.9 12.371,15.559 15.908,25.963c3.596,10.575 5.38,23.091 5.38,37.554Z" style="fill:url(#_Linear3);"/><path d="M737.471,405.679c-0,-11.017 -2.092,-20.954 -6.259,-29.812c-4.183,-8.9 -10.17,-16.484 -17.954,-22.759c-7.766,-6.262 -17.291,-11.108 -28.579,-14.525c-11.208,-3.391 -24.587,-5.1 -40.137,-5.1l-26.425,0l-0,-76.375c-0,-1.233 -0.409,-2.312 -1.205,-3.237c-0.75,-0.871 -1.891,-1.588 -3.47,-2.096c-1.296,-0.421 -3.071,-0.783 -5.325,-1.083c-2.175,-0.288 -4.913,-0.434 -8.213,-0.434c-3.3,0 -6.037,0.146 -8.212,0.434c-2.238,0.295 -4.038,0.658 -5.392,1.075c-1.713,0.52 -2.871,1.279 -3.554,2.175c-0.692,0.904 -1.054,1.958 -1.054,3.166l-0,199.542c-0,5.021 1.641,8.554 4.662,10.688c3.008,2.125 6.379,3.179 10.1,3.179l53.071,-0c5.417,-0 10.612,-0.196 15.579,-0.588c4.979,-0.396 10.863,-1.241 17.65,-2.537c6.867,-1.313 13.871,-3.763 21,-7.354c7.146,-3.605 13.208,-8.038 18.188,-13.301c4.983,-5.262 8.825,-11.35 11.512,-18.27c2.675,-6.884 4.017,-14.48 4.017,-22.788Zm-39.017,-2.341c0,8.366 -1.746,15.362 -5.325,20.975c-3.525,5.52 -7.858,9.654 -13.05,12.362c-5.25,2.733 -10.679,4.479 -16.292,5.217c-5.804,0.762 -11.454,1.141 -16.945,1.141l-27.859,0l0,-82.233l27.092,0c9.579,0 17.538,1.046 23.858,3.188c6.217,2.104 11.438,5.016 15.663,8.754c4.212,3.729 7.396,8.195 9.566,13.396c2.2,5.279 3.292,11.012 3.292,17.2Z" style="fill:url(#_Linear4);"/></g><g><path d="M36.108,246.892c0,1.387 -0.358,2.596 -1.045,3.637c-0.68,1.029 -1.83,1.9 -3.525,2.5c-1.346,0.475 -3.125,0.892 -5.346,1.229c-2.154,0.334 -4.867,0.5 -8.138,0.5c-3.133,0 -5.812,-0.166 -8.033,-0.496c-2.288,-0.341 -4.104,-0.754 -5.446,-1.233c-1.7,-0.6 -2.85,-1.471 -3.529,-2.5c-0.688,-1.041 -1.046,-2.25 -1.046,-3.637l0,-238.03c0,-1.416 0.408,-2.654 1.196,-3.716c0.746,-1.004 1.95,-1.846 3.687,-2.434c1.405,-0.47 3.209,-0.879 5.413,-1.216c2.162,-0.334 4.746,-0.5 7.758,-0.5c3.271,-0 5.984,0.166 8.138,0.5c2.221,0.337 4,0.75 5.346,1.229c1.695,0.6 2.845,1.471 3.525,2.5c0.687,1.042 1.045,2.25 1.045,3.637l0,238.03Z" style="fill:#fff;"/><path d="M89.117,123.125c-0,-19.025 2.637,-36.096 7.891,-51.212c5.284,-15.196 13.054,-28.13 23.296,-38.809c10.246,-10.683 22.934,-18.883 38.079,-24.583c15.05,-5.671 33.475,-8.521 55.275,-8.521l56.396,0c3.321,0 6.467,1.104 9.425,3.35c2.992,2.271 4.633,6.204 4.633,11.917l0,223.066c0,5.713 -1.641,9.646 -4.633,11.917c-2.958,2.246 -6.104,3.35 -9.425,3.35l-52.737,0c-21.521,0 -40.059,-2.683 -55.617,-8.021c-15.662,-5.375 -28.875,-13.475 -39.642,-24.287c-10.762,-10.809 -18.962,-24.429 -24.571,-40.871c-5.57,-16.333 -8.37,-35.429 -8.37,-57.296Zm39.179,1.354c-0,16.729 1.787,31.209 5.383,43.434c3.538,12.033 8.829,22.049 15.904,30.033c7.034,7.929 15.796,13.804 26.284,17.646c10.662,3.904 23.775,5.833 39.333,5.833l31.463,-0l-0,-189.442l-31.08,0c-16.766,0 -30.475,2.284 -41.112,6.934c-10.517,4.6 -19.221,10.991 -26.088,19.195c-6.896,8.234 -11.95,18.005 -15.183,29.296c-3.271,11.438 -4.904,23.796 -4.904,37.071Z" style="fill:#fff;"/><path d="M534.796,123.125c-0,21.867 -2.8,40.963 -8.371,57.296c-5.613,16.442 -13.808,30.062 -24.571,40.871c-10.767,10.812 -23.979,18.912 -39.646,24.287c-15.554,5.338 -34.091,8.021 -55.612,8.021l-52.742,-0c-3.317,-0 -6.462,-1.104 -9.421,-3.35c-2.991,-2.271 -4.633,-6.204 -4.633,-11.917l0,-223.066c0,-5.713 1.642,-9.646 4.633,-11.917c2.959,-2.246 6.105,-3.35 9.421,-3.35l56.4,-0c21.8,-0 40.225,2.85 55.275,8.521c15.142,5.7 27.834,13.9 38.079,24.583c10.242,10.679 18.009,23.613 23.296,38.808c5.254,15.117 7.892,32.188 7.892,51.213Zm-39.183,1.354c-0,-13.275 -1.63,-25.633 -4.905,-37.071c-3.229,-11.291 -8.283,-21.062 -15.179,-29.296c-6.867,-8.204 -15.571,-14.595 -26.092,-19.195c-10.633,-4.65 -24.341,-6.934 -41.108,-6.934l-31.079,0l-0,189.442l31.462,0c15.559,0 28.671,-1.929 39.334,-5.833c10.487,-3.842 19.25,-9.717 26.279,-17.646c7.079,-7.983 12.371,-18 15.908,-30.033c3.596,-12.225 5.379,-26.705 5.379,-43.434Z" style="fill:#fff;"/><path d="M737.417,74.996c-0,12.742 -2.092,24.233 -6.259,34.479c-4.183,10.296 -10.171,19.067 -17.954,26.325c-7.767,7.246 -17.287,12.85 -28.579,16.8c-11.208,3.921 -24.588,5.896 -40.138,5.896l-26.425,-0l0,88.342c0,1.425 -0.408,2.67 -1.204,3.741c-0.75,1.009 -1.891,1.842 -3.471,2.429c-1.295,0.48 -3.07,0.905 -5.325,1.246c-2.175,0.334 -4.912,0.504 -8.212,0.504c-3.296,0 -6.033,-0.17 -8.213,-0.504c-2.237,-0.341 -4.033,-0.758 -5.391,-1.237c-1.713,-0.604 -2.867,-1.479 -3.554,-2.517c-0.692,-1.046 -1.055,-2.267 -1.055,-3.662l0,-230.796c0,-5.809 1.642,-9.896 4.663,-12.363c3.008,-2.458 6.379,-3.679 10.104,-3.679l53.067,0c5.421,0 10.612,0.229 15.579,0.683c4.979,0.459 10.862,1.434 17.65,2.934c6.871,1.516 13.871,4.35 21,8.508c7.146,4.167 13.208,9.296 18.192,15.379c4.979,6.088 8.82,13.129 11.508,21.134c2.675,7.962 4.017,16.75 4.017,26.358Zm-39.017,2.704c-0,-9.671 -1.746,-17.767 -5.325,-24.254c-3.525,-6.388 -7.858,-11.167 -13.05,-14.3c-5.25,-3.167 -10.679,-5.184 -16.292,-6.034c-5.804,-0.883 -11.454,-1.325 -16.946,-1.325l-27.858,0l0,95.113l27.092,0c9.579,0 17.537,-1.208 23.862,-3.683c6.213,-2.438 11.434,-5.804 15.659,-10.125c4.212,-4.313 7.4,-9.479 9.566,-15.492c2.2,-6.108 3.292,-12.742 3.292,-19.9Z" style="fill:#fff;"/></g><defs><linearGradient id="_Linear1" x1="0" y1="0" x2="1" y2="0" gradientUnits="userSpaceOnUse" gradientTransform="matrix(-4.22351e-13,138.594,-138.594,-4.22351e-13,339.855,250.259)"><stop offset="0" style="stop-color:#fff;stop-opacity:0.5"/><stop offset="1" style="stop-color:#fff;stop-opacity:0"/></linearGradient><linearGradient id="_Linear2" x1="0" y1="0" x2="1" y2="0" gradientUnits="userSpaceOnUse" gradientTransform="matrix(-4.22351e-13,138.594,-138.594,-4.22351e-13,339.855,250.259)"><stop offset="0" style="stop-color:#fff;stop-opacity:0.5"/><stop offset="1" style="stop-color:#fff;stop-opacity:0"/></linearGradient><linearGradient id="_Linear3" x1="0" y1="0" x2="1" y2="0" gradientUnits="userSpaceOnUse" gradientTransform="matrix(-4.22351e-13,138.594,-138.594,-4.22351e-13,339.855,250.259)"><stop offset="0" style="stop-color:#fff;stop-opacity:0.5"/><stop offset="1" style="stop-color:#fff;stop-opacity:0"/></linearGradient><linearGradient id="_Linear4" x1="0" y1="0" x2="1" y2="0" gradientUnits="userSpaceOnUse" gradientTransform="matrix(-4.22351e-13,138.594,-138.594,-4.22351e-13,339.855,250.259)"><stop offset="0" style="stop-color:#fff;stop-opacity:0.5"/><stop offset="1" style="stop-color:#fff;stop-opacity:0"/></linearGradient></defs></svg>